<?xml version="1.0" encoding="utf-8"?>
<!-- Generator: Adobe Illustrator 23.0.0, SVG Export Plug-In . SVG Version: 6.00 Build 0)  -->
<svg version="1.1" id="Layer_1" xmlns="http://www.w3.org/2000/svg" xmlns:xlink="http://www.w3.org/1999/xlink" x="0px" y="0px"
     viewBox="0 0 1041.49 1032.13" style="enable-background:new 0 0 1041.49 1032.13;" xml:space="preserve">
<style type="text/css">
	.st0{display:none;fill:#2A3E55;}
	.st1{fill:#2A3E55;}
	.st2{fill:#F9B13C;}
	.st3{clip-path:url(#XMLID_8_);fill:#D6902A;}
	.st4{fill:#FFFFFF;}
	.st5{clip-path:url(#XMLID_9_);fill:#D6902A;}
	.st6{clip-path:url(#XMLID_10_);fill:#D6902A;}
	.st7{clip-path:url(#XMLID_12_);fill:#D6902A;}
	.st8{clip-path:url(#XMLID_13_);fill:#D6902A;}
	.st9{clip-path:url(#XMLID_14_);fill:#D6902A;}
	.st10{clip-path:url(#XMLID_15_);fill:#D6902A;}
	.st11{fill:#F9B13B;}
	.st12{fill:#D6902A;}
	.st13{fill:#F9B13B;stroke:#FFFFFF;stroke-miterlimit:10;}
	.st14{fill:#1C2A38;}
	.st15{display:none;fill:#F9B13C;}
	.st16{font-family:'Lato-MediumItalic';}
	.st17{font-size:118.1304px;}
	.st18{font-family:'Lato-Heavy';}
	.st19{font-size:138.6436px;}
</style>
    <g>
	<g>
		<path class="st11" d="M926.21,471.62c0,0.05,0.02,0.11,0.05,0.18c-0.08-0.02-0.18-0.03-0.26-0.07L926.21,471.62z"/>
        <path class="st12" d="M951.16,462.74c-7.22,1.53-14.45,3.05-21.67,4.58c-1.25,0.28-2.51,0.54-3.78,0.8
			c-1.77,0.38-3.55,0.76-5.33,1.13c-2.25-1.48-4.17-3.5-5.6-5.99l-0.51-0.9l-8.19-14.31l-4.09-7.17l27.64-15.81l7.47,13.08
			l9.87,17.27L951.16,462.74z"/>
        <path class="st12" d="M910.62,471.32c-3.71,0.79-7.44,1.58-11.16,2.36c-2.69,0.57-5.38,1.15-8.09,1.72
			c-4.48,0.95-8.96,1.9-13.46,2.86l-4.17-7.3l-5.02-8.8l-3.15-5.5l27.66-15.79l6.25,10.95l6.98,12.2L910.62,471.32z"/>
        <path class="st11" d="M891.36,475.41c-4.48,0.95-8.96,1.9-13.46,2.86c-6.42,1.36-12.84,2.72-19.26,4.07l-6.53-11.44l1.07-0.61
			l11.05-6.32c1.44-0.82,2.95-1.41,4.48-1.81c6.65-1.69,13.81,0.59,18.2,5.99c0.64,0.76,1.21,1.59,1.72,2.48L891.36,475.41z"/>
        <path class="st11" d="M929.5,467.32c-1.25,0.28-2.51,0.54-3.78,0.8c-1.77,0.38-3.55,0.76-5.33,1.13c-3.25,0.69-6.5,1.38-9.77,2.07
			c-3.71,0.79-7.44,1.58-11.16,2.36c-1.67-1.33-3.1-3-4.24-4.97l-1.18-2.07l-5.04-8.83l10.47-5.99l6.62-3.78l9.34-5.33l9.88,17.3
			l1.21,2.12L929.5,467.32z"/>
        <path class="st11" d="M964.9,447.27l-1.53,4.66l-2.91,8.82c-3.1,0.66-6.2,1.31-9.31,1.99c-7.22,1.53-14.45,3.05-21.67,4.58
			c-1.25,0.28-2.51,0.54-3.78,0.8c-0.08-1.97,0.18-3.99,0.8-5.99c0.02-0.1,0.05-0.18,0.08-0.28l0.74-2.27l7.3-22.24l2.46,0.8
			L964.9,447.27z"/>
        <text transform="matrix(0.958 -0.2868 0.2868 0.958 839.7953 541.8244)" class="st15 st16 st17">PS</text>
        <g>
			<path class="st1" d="M984.6,557.12c0.23-0.31,0.41-0.54,0.56-0.79c2.38-3.74,2.53-7.55,0.25-11.38
				c-2.08-3.48-6.58-5.6-11.31-4.58c-27.18,5.81-54.37,11.56-81.55,17.32c-0.36,0.08-0.74,0.15-1.13,0.23
				c-0.41-1.9-0.79-3.74-1.2-5.63c0,0,0.11-0.07,0.25-0.1c4.89-1.66,9.8-3.3,14.69-4.96c5.53-1.87,11.06-3.76,16.6-5.63
				c5.04-1.69,10.08-3.37,15.12-5.07c5.53-1.87,11.06-3.76,16.61-5.61c5.02-1.71,10.08-3.38,15.12-5.07
				c5.14-1.74,10.28-3.48,15.43-5.22c3.25-1.1,5.66-3.14,6.8-6.4c0.49-1.44,0.49-3.04,0.72-4.56c-3.68-17.38-7.37-34.75-11.05-52.13
				c-0.26-0.51-0.53-1.03-0.8-1.54c-2.08-3.82-6.71-6.12-11.64-5.06c-1.56,0.33-3.12,0.66-4.68,1c-5.47,1.17-10.93,2.31-16.4,3.48
				c-6.55,1.4-13.1,2.79-19.63,4.17c-0.69,0.15-1.36,0.3-2.04,0.43c-3.68,0.79-7.35,1.58-11.03,2.35c-2.61,0.56-5.22,1.12-7.83,1.66
				c-4.14,0.89-8.27,1.76-12.41,2.63c-2.38,0.51-4.76,1.02-7.12,1.51c-4.4,0.94-8.8,1.87-13.18,2.81c-5.7,1.2-11.39,2.41-17.09,3.61
				c-0.39,0.1-0.8,0.18-1.13,0.25c-0.79-1.58-1.48-3.12-2.33-4.53c-0.02-0.05-0.05-0.1-0.08-0.15c-2.41-4.04-5.94-6.65-12.05-5.27
				c-8.04,1.84-16.17,3.43-24.23,5.19c-7.34,1.61-10.54,10.44-5.93,16.35c2.79,3.58,6.52,4.73,10.92,3.81
				c5.09-1.07,10.18-2.15,15.27-3.25c0.61-0.13,0.89-0.02,1.13,0.56c10.49,23.44,21,46.9,31.47,70.36c0.2,0.43,0.21,1.02,0.1,1.49
				c-0.8,3.4-1.81,6.75-2.48,10.16c-0.82,4.2,0.56,7.7,3.99,10.33c0.48,0.38,1,0.71,1.49,1.05c-4.04,7.83-1.43,16.51,4.53,21.08
				c6.24,4.78,14.71,4.69,20.73-0.2c2.99-2.43,4.97-5.55,5.79-9.32c1.23-5.66-0.25-10.65-3.99-15.05
				c19.62-4.17,39.12-8.31,58.67-12.44c-2.81,8.98,1.76,17.19,8.67,20.49c6.89,3.3,15.22,1.48,20.14-4.55
				c2.43-2.97,3.71-6.4,3.74-10.23C991.13,565.14,988.85,560.64,984.6,557.12z M889.34,597.23c-4.66,1-9.27-1.97-10.28-6.62
				c-1-4.61,2.02-9.27,6.65-10.28c4.65-1,9.24,1.97,10.24,6.65C896.96,591.66,894.02,596.21,889.34,597.23z M878.3,573.7
				c-2.1,0.44-3.51-0.79-3.05-2.87c0.67-3.15,1.51-6.27,2.36-9.39c0.97-3.48,0.98-3.45-0.49-6.73
				c-5.79-12.92-11.57-25.85-17.35-38.77c-5.63-12.59-11.26-25.16-16.89-37.75c-0.08-0.18-0.2-0.36-0.34-0.61
				c-0.31,0.07-0.66,0.13-1,0.21c-7.16,1.51-14.31,3.04-21.49,4.55c-1.66,0.34-2.91-0.38-3.15-1.82c-0.2-1.07,0.44-2.15,1.48-2.5
				c0.33-0.11,0.67-0.18,1.02-0.26c7.83-1.66,15.66-3.32,23.47-4.97c1.79-0.38,2.5-0.18,3.32,1.46c1.07,2.08,1.92,4.28,2.87,6.42
				c0.48,1.1,0.95,2.2,1.49,3.41c0.43-0.1,0.85-0.18,1.26-0.28c2.28-0.48,4.56-0.97,6.85-1.46c6.42-1.35,12.84-2.71,19.26-4.07
				c4.5-0.95,8.98-1.9,13.46-2.86c2.71-0.57,5.4-1.15,8.09-1.72c3.73-0.79,7.45-1.58,11.16-2.36c3.27-0.69,6.52-1.38,9.77-2.07
				c1.79-0.38,3.56-0.76,5.33-1.13c1.26-0.26,2.53-0.53,3.78-0.8c7.22-1.53,14.45-3.05,21.67-4.58c3.1-0.67,6.2-1.33,9.31-1.99
				c2.87-0.61,5.75-1.21,8.62-1.82c0.46-0.08,0.92-0.18,1.4-0.21c1.15-0.07,2.05,0.61,2.35,1.71c0.08,0.28,0.13,0.57,0.2,0.87
				l10.19,48.06c0.46,2.2,0.11,2.92-2.02,3.66c-4.04,1.41-8.11,2.76-12.18,4.14c-5.09,1.71-10.18,3.45-15.27,5.15
				c-4.6,1.54-9.19,3.07-13.79,4.63c-4.53,1.53-9.06,3.07-13.59,4.61c-4.56,1.53-9.14,3.05-13.71,4.6
				c-4.56,1.53-9.11,3.09-13.67,4.63c-4.53,1.53-9.08,3.05-13.61,4.58c-2.07,0.69-4.12,1.38-6.35,2.15c1.26,2.84,2.46,5.6,3.69,8.36
				c0.51,1.12,0.62,2.23,0.3,3.43c-0.82,2.99-1.59,5.99-2.43,9.19c0.49-0.11,0.84-0.18,1.2-0.26c31.12-6.6,62.25-13.2,93.37-19.8
				c0.41-0.08,0.8-0.18,1.21-0.23c1.1-0.11,2.08,0.53,2.4,1.53c0.36,1.12-0.08,2.25-1.12,2.76c-0.31,0.15-0.66,0.26-1,0.33
				C943.88,559.78,911.08,566.74,878.3,573.7z M976.13,578.81c-4.68,0.97-9.27-2.04-10.23-6.68c-0.94-4.66,2.08-9.27,6.71-10.21
				c4.68-0.95,9.23,2.04,10.19,6.7C983.78,573.31,980.83,577.84,976.13,578.81z"/>
		</g>
	</g>
        <g>
		<text transform="matrix(1 0 0 1 36.8567 585.3024)"><tspan x="0" y="0" class="st1 st18 st19">Procure</tspan><tspan x="491.49" y="0" class="st2 st16 st19">Swift</tspan></text>
            <circle class="st12" cx="716.43" cy="493.21" r="9.02"/>
	</g>
</g>
</svg>
